<svg xmlns="http://www.w3.org/2000/svg" version="1.1" xmlns:xlink="http://www.w3.org/1999/xlink" width="512"
  height="512" x="0" y="0" viewBox="0 0 48 48" style="enable-background:new 0 0 512 512" xml:space="preserve" class="">
  <g>
    <path fill="#f0ab00" d="M24 33a1 1 0 0 1-1-1v-4a1 1 0 0 1 2 0v4a1 1 0 0 1-1 1z" opacity="1" data-original="#f0ab00"
      class=""></path>
    <g fill="#f5c12e">
      <path
        d="M28 23h-1V6a1 1 0 0 0-1-1h-4a1 1 0 0 0-.89.55l-2 4A1 1 0 0 0 20 11h1v12h-1a1 1 0 0 0-1 1v4a1 1 0 0 0 1 1h8a1 1 0 0 0 1-1v-4a1 1 0 0 0-1-1zM44.86 14l-3.11.44A9.8 9.8 0 0 0 46 8.2a1 1 0 0 0-1.39-1.11L38.09 10H38a1 1 0 0 0-1 1v1a25.83 25.83 0 0 1-8.66 19.29 1 1 0 0 0-.09 1.41 1 1 0 0 0 .75.3 1 1 0 0 0 .5-.15 1 1 0 0 0 .5.15h1.34a14.56 14.56 0 0 0 10.37-4.29 1 1 0 0 0 .21-1.09A1 1 0 0 0 41 27h-2.92a10.73 10.73 0 0 0 6.81-5.55 1 1 0 0 0-1-1.44l-5.81.83.7-.12a9.78 9.78 0 0 0 7.14-5.27 1 1 0 0 0-1-1.44zM11 12v-1a1 1 0 0 0-1-1h-.06l-6.5-2.9a1 1 0 0 0-1 .13A1 1 0 0 0 2 8.2a9.8 9.8 0 0 0 4.23 6.25L3.14 14a1 1 0 0 0-1 1.44 9.78 9.78 0 0 0 7.14 5.27l.7.12L4.14 20a1 1 0 0 0-1 1.44A10.7 10.7 0 0 0 9.92 27H7a1 1 0 0 0-.92.62 1 1 0 0 0 .21 1.09A14.56 14.56 0 0 0 16.66 33H18a1 1 0 0 0 .5-.15 1 1 0 0 0 .5.15 1 1 0 0 0 .75-.34 1 1 0 0 0-.09-1.41A25.83 25.83 0 0 1 11 12z"
        fill="#f5c12e" opacity="1" data-original="#f5c12e" class=""></path>
      <path d="M29 31H19a2 2 0 0 0-2 2v3a1 1 0 0 0 1 1h12a1 1 0 0 0 1-1v-3a2 2 0 0 0-2-2z" fill="#f5c12e" opacity="1"
        data-original="#f5c12e" class=""></path>
    </g>
    <path fill="#f0ab00" d="M29 35H19a4 4 0 0 0-4 4v3a1 1 0 0 0 1 1h16a1 1 0 0 0 1-1v-3a4 4 0 0 0-4-4z" opacity="1"
      data-original="#f0ab00" class=""></path>
  </g>
</svg>