<?xml version="1.0" encoding="UTF-8"?>
<svg id="Calque_1" data-name="Calque 1" xmlns="http://www.w3.org/2000/svg" viewBox="0 0 469.7 398.41" width="512"
  height="512">
  <defs>
    <style>
      .cls-1 {
        fill: #9ba0db;
      }

      .cls-2 {
        fill: #7e8498;
      }
    </style>
  </defs>
  <path class="cls-2"
    d="m234.77,291.75c-5.89,0-10.67-7.84-10.67-17.51v-70.03c0-9.67,4.78-17.51,10.67-17.51s10.67,7.84,10.67,17.51v70.03c0,9.67-4.78,17.51-10.67,17.51Z" />
  <g>
    <path class="cls-1"
      d="m457.27,89.08l-33.17,4.69c23.39-15.24,39.72-39.21,45.33-66.56,1.17-5.77-2.57-11.4-8.35-12.57-2.18-.44-4.45-.19-6.48.73l-69.55,31.04h-.96c-5.89,0-10.67,4.78-10.67,10.67v10.67c-.02,78.63-33.63,153.5-92.37,205.76-4.41,3.89-4.84,10.62-.96,15.04,2.1,2.14,5,3.31,8,3.2,1.89-.05,3.73-.6,5.33-1.6,1.6,1,3.45,1.55,5.33,1.6h14.29c41.5.14,81.34-16.34,110.61-45.76,3.03-3.07,3.91-7.65,2.24-11.63-1.64-3.98-5.51-6.59-9.81-6.61h-31.15c31.55-8.46,57.98-30,72.64-59.2,2.62-5.27.48-11.68-4.8-14.3-1.82-.9-3.85-1.27-5.87-1.06l-61.97,8.85,7.47-1.28c32.92-5.48,61.22-26.37,76.16-56.21,2.62-5.27.48-11.68-4.8-14.3-1.82-.9-3.85-1.27-5.87-1.06l-.64-.11Zm-361.17-21.33v-10.67c0-5.89-4.78-10.67-10.67-10.67h-.64L15.46,15.48c-3.55-1.5-7.62-.97-10.67,1.39C1.37,19.13-.46,23.15.1,27.21c5.54,27.35,21.78,51.36,45.12,66.67l-32.96-4.8c-5.86-.62-11.11,3.63-11.73,9.49-.21,2.02.15,4.05,1.06,5.87,14.94,29.84,43.24,50.73,76.16,56.21l7.47,1.28-62.29-8.85c-5.86-.62-11.11,3.63-11.73,9.49-.21,2.02.15,4.05,1.06,5.87,14.53,29.19,40.85,50.78,72.32,59.31h-31.15c-4.31.02-8.18,2.63-9.81,6.61-1.67,3.97-.79,8.56,2.24,11.63,29.28,29.42,69.11,45.9,110.61,45.76h14.29c1.89-.05,3.73-.6,5.33-1.6,1.6,1,3.45,1.55,5.33,1.6,3.06,0,5.98-1.32,8-3.63,3.88-4.42,3.45-11.15-.96-15.04-58.63-52.17-92.23-126.86-92.37-205.33Z" />
    <path class="cls-1"
      d="m288.1,270.41h-106.67c-11.78,0-21.33,9.55-21.33,21.33v32c0,5.89,4.78,10.67,10.67,10.67h128c5.89,0,10.67-4.78,10.67-10.67v-32c0-11.78-9.55-21.33-21.33-21.33Z" />
  </g>
  <path class="cls-2"
    d="m288.1,313.08h-106.67c-23.56,0-42.67,19.1-42.67,42.67v32c0,5.89,4.78,10.67,10.67,10.67h170.67c5.89,0,10.67-4.78,10.67-10.67v-32c0-23.56-19.1-42.67-42.67-42.67Z" />
  <path class="cls-1"
    d="m160.28,178.63l61.21-60.27c18.74-19.36,25.29-31.23,24.98-44.66,0-5.31-1.87-10.31-5-14.05h-.31c-3.75-3.44-8.12-5-12.8-5h-.31c-7.98,0-14.09,4.12-20.94,12.22-3.72,4.4-10.22,5.16-14.88,1.77l-27.59-20.12c-5.03-3.66-6.06-10.79-2.2-15.67,6.4-8.12,13.78-14.76,22.52-20.05C198.38,4.37,214,.31,232.73,0h.62c19.36,0,37.16,6.25,50.9,17.8,6.56,5.62,12.18,12.8,15.93,20.3,3.75,8.43,6.25,17.8,6.25,27.79,0,14.99-2.19,24.98-6.56,35.29-5,11.55-14.05,23.73-29.36,39.66l-29.04,27.48,56.46-.52c6.08-.06,11.05,4.82,11.12,10.89l.38,34.15c.07,6.1-4.84,11.1-10.95,11.14l-127.12.8c-6.11.04-11.08-4.9-11.08-11.01v-35.13Z" />
</svg>