<?xml version="1.0" encoding="UTF-8"?>
<svg id="Calque_1" data-name="Calque 1" xmlns="http://www.w3.org/2000/svg" viewBox="0 0 469.7 396.45" width="512"
  height="512">
  <defs>
    <style>
      .cls-1 {
        fill: #e19138;
      }

      .cls-2 {
        fill: #c66816;
      }
    </style>
  </defs>
  <path class="cls-2"
    d="m234.77,289.79c-5.89,0-10.67-7.84-10.67-17.51v-70.03c0-9.67,4.78-17.51,10.67-17.51s10.67,7.84,10.67,17.51v70.03c0,9.67-4.78,17.51-10.67,17.51Z" />
  <g>
    <path class="cls-1"
      d="m457.27,87.12l-33.17,4.69c23.39-15.24,39.72-39.21,45.33-66.56,1.17-5.77-2.57-11.4-8.35-12.57-2.18-.44-4.45-.19-6.48.73l-69.55,31.04h-.96c-5.89,0-10.67,4.78-10.67,10.67v10.67c-.02,78.63-33.63,153.5-92.37,205.76-4.41,3.89-4.84,10.62-.96,15.04,2.1,2.14,5,3.31,8,3.2,1.89-.05,3.73-.6,5.33-1.6,1.6,1,3.45,1.55,5.33,1.6h14.29c41.5.14,81.34-16.34,110.61-45.76,3.03-3.07,3.91-7.65,2.24-11.63-1.64-3.98-5.51-6.59-9.81-6.61h-31.15c31.55-8.46,57.98-30,72.64-59.2,2.62-5.27.48-11.68-4.8-14.3-1.82-.9-3.85-1.27-5.87-1.06l-61.97,8.85,7.47-1.28c32.92-5.48,61.22-26.37,76.16-56.21,2.62-5.27.48-11.68-4.8-14.3-1.82-.9-3.85-1.27-5.87-1.06l-.64-.11Zm-361.17-21.33v-10.67c0-5.89-4.78-10.67-10.67-10.67h-.64L15.46,13.52c-3.55-1.5-7.62-.97-10.67,1.39C1.37,17.17-.46,21.19.1,25.25c5.54,27.35,21.78,51.36,45.12,66.67l-32.96-4.8c-5.86-.62-11.11,3.63-11.73,9.49-.21,2.02.15,4.05,1.06,5.87,14.94,29.84,43.24,50.73,76.16,56.21l7.47,1.28-62.29-8.85c-5.86-.62-11.11,3.63-11.73,9.49-.21,2.02.15,4.05,1.06,5.87,14.53,29.19,40.85,50.78,72.32,59.31h-31.15c-4.31.02-8.18,2.63-9.81,6.61-1.67,3.97-.79,8.56,2.24,11.63,29.28,29.42,69.11,45.9,110.61,45.76h14.29c1.89-.05,3.73-.6,5.33-1.6,1.6,1,3.45,1.55,5.33,1.6,3.06,0,5.98-1.32,8-3.63,3.88-4.42,3.45-11.15-.96-15.04-58.63-52.17-92.23-126.86-92.37-205.33Z" />
    <path class="cls-1"
      d="m288.1,268.45h-106.67c-11.78,0-21.33,9.55-21.33,21.33v32c0,5.89,4.78,10.67,10.67,10.67h128c5.89,0,10.67-4.78,10.67-10.67v-32c0-11.78-9.55-21.33-21.33-21.33Z" />
  </g>
  <path class="cls-2"
    d="m288.1,311.12h-106.67c-23.56,0-42.67,19.1-42.67,42.67v32c0,5.89,4.78,10.67,10.67,10.67h170.67c5.89,0,10.67-4.78,10.67-10.67v-32c0-23.56-19.1-42.67-42.67-42.67Z" />
  <path class="cls-1"
    d="m237.22,232.43c-10.19,0-19.74-.96-28.66-3.5h-.32c-8.92-1.91-17.83-5.41-26.11-10.19-7.96-5.09-14.96-11.14-20.7-18.47-6.37-7.64-10.51-16.56-13.69-27.38l-.02-.08c-.52-2.07.73-4.17,2.79-4.71l47.23-12.36c2.1-.55,4.24.72,4.76,2.82h0c1.59,6.05,5.09,11.14,11.14,16.56v.32c5.73,4.46,12.42,6.69,21.33,6.69,3.5,0,7-.32,10.19-1.27,3.5-1.27,6.37-2.55,8.6-4.14v-.32h.32c1.91-1.59,3.82-3.82,5.73-6.69v-.32c1.59-2.55,2.23-6.69,2.23-10.19,0-4.78-.96-8.6-2.87-11.46-2.23-3.18-4.78-5.41-8.6-7.32h-.32c-4.46-2.23-8.28-3.5-12.74-4.46-4.46-.64-9.23-.95-14.96-.95h-17.51v-44.58h18.79c5.09,0,9.23-.32,13.37-1.27,4.14-.64,7.96-2.23,10.19-3.18l.32-.32c2.87-1.59,5.41-3.82,6.69-6.37,1.91-2.55,2.55-6.05,2.55-10.51,0-6.37-1.91-11.14-6.37-14.33-4.46-3.82-9.87-5.41-16.24-5.41s-11.78,1.91-16.24,5.73c-4.78,3.82-7.64,8.92-8.92,14.96l-.03.11c-.52,2.06-2.59,3.33-4.66,2.85l-47.56-11c-2.1-.48-3.4-2.58-2.92-4.67l.08-.35c3.18-9.87,7.32-17.83,12.74-24.83,5.41-7,12.1-13.05,19.42-17.83,7.96-4.78,16.24-8.6,24.52-10.51,8.6-2.23,17.51-3.5,26.75-3.5,10.51,0,20.06,1.27,28.65,3.82,9.23,2.23,17.83,6.05,25.15,11.46s13.69,12.1,18.47,20.06c4.78,8.28,6.69,17.83,6.69,28.66,0,12.42-3.5,23.56-10.83,32.79-3.5,3.82-7.64,7.64-13.05,11.14l-3.82,2.87,3.82,2.55c.96.64,1.91,1.27,3.18,1.91,4.46,2.55,9.55,6.69,13.69,11.46,3.82,4.46,6.37,9.23,9.23,15.6,1.91,6.05,3.18,12.1,3.18,18.47,0,12.42-2.87,23.24-7.64,32.16v.32c-5.09,8.92-11.46,16.56-19.74,22.29-8.6,5.73-17.51,10.19-27.06,12.42-9.55,3.18-19.74,4.46-30.25,4.46Z" />
</svg>